<?xml version="1.0" encoding="utf-8" standalone="no"?>
<!DOCTYPE svg PUBLIC "-//W3C//DTD SVG 1.1//EN"
  "http://www.w3.org/Graphics/SVG/1.1/DTD/svg11.dtd">
<svg xmlns:xlink="http://www.w3.org/1999/xlink" width="432pt" height="288pt" viewBox="0 0 432 288" xmlns="http://www.w3.org/2000/svg" version="1.1">
 <metadata>
  <rdf:RDF xmlns:dc="http://purl.org/dc/elements/1.1/" xmlns:cc="http://creativecommons.org/ns#" xmlns:rdf="http://www.w3.org/1999/02/22-rdf-syntax-ns#">
   <cc:Work>
    <dc:type rdf:resource="http://purl.org/dc/dcmitype/StillImage"/>
    <dc:date>2024-05-26T21:38:33.296666</dc:date>
    <dc:format>image/svg+xml</dc:format>
    <dc:creator>
     <cc:Agent>
      <dc:title>Matplotlib v3.7.1, https://matplotlib.org/</dc:title>
     </cc:Agent>
    </dc:creator>
   </cc:Work>
  </rdf:RDF>
 </metadata>
 <defs>
  <style type="text/css">*{stroke-linejoin: round; stroke-linecap: butt}</style>
 </defs>
 <g id="figure_1">
  <g id="patch_1">
   <path d="M 0 288 
L 432 288 
L 432 0 
L 0 0 
z
" style="fill: #ffffff"/>
  </g>
  <g id="axes_1">
   <g id="patch_2">
    <path d="M 74.834646 285.165354 
L 357.165354 285.165354 
L 357.165354 2.834646 
L 74.834646 2.834646 
z
" style="fill: #ffffff"/>
   </g>
   <g id="line2d_1">
    <path d="M 171.608379 277.174863 
L 91.703462 277.174863 
" clip-path="url(#p19cd5d0115)" style="fill: none; stroke: #000000; stroke-width: 3"/>
   </g>
   <g id="matplotlib.axis_1">
    <g id="xtick_1"/>
    <g id="xtick_2"/>
    <g id="xtick_3"/>
    <g id="xtick_4"/>
    <g id="xtick_5"/>
    <g id="xtick_6"/>
    <g id="xtick_7"/>
   </g>
   <g id="matplotlib.axis_2">
    <g id="ytick_1"/>
    <g id="ytick_2"/>
    <g id="ytick_3"/>
    <g id="ytick_4"/>
    <g id="ytick_5"/>
    <g id="ytick_6"/>
    <g id="ytick_7"/>
   </g>
   <g id="line2d_2">
    <path d="M 260.391621 277.174863 
L 180.486703 277.174863 
" clip-path="url(#p19cd5d0115)" style="fill: none; stroke: #000000; stroke-width: 3"/>
   </g>
   <g id="line2d_3">
    <path d="M 349.174863 277.174863 
L 269.269945 277.174863 
" clip-path="url(#p19cd5d0115)" style="fill: none; stroke: #000000; stroke-width: 3"/>
   </g>
   <g id="line2d_4">
    <path d="M 82.825137 188.391621 
L 162.730055 188.391621 
" clip-path="url(#p19cd5d0115)" style="fill: none; stroke: #000000; stroke-width: 3"/>
   </g>
   <g id="line2d_5">
    <path d="M 171.608379 188.391621 
L 171.608379 108.486703 
" clip-path="url(#p19cd5d0115)" style="fill: none; stroke: #000000; stroke-width: 3"/>
   </g>
   <g id="line2d_6">
    <path d="M 349.174863 188.391621 
L 349.174863 108.486703 
" clip-path="url(#p19cd5d0115)" style="fill: none; stroke: #000000; stroke-width: 3"/>
   </g>
   <g id="line2d_7">
    <path d="M 82.825137 99.608379 
L 82.825137 179.513297 
" clip-path="url(#p19cd5d0115)" style="fill: none; stroke: #000000; stroke-width: 3"/>
   </g>
   <g id="line2d_8">
    <path d="M 260.391621 99.608379 
L 260.391621 179.513297 
" clip-path="url(#p19cd5d0115)" style="fill: none; stroke: #000000; stroke-width: 3"/>
   </g>
   <g id="line2d_9">
    <path d="M 82.825137 10.825137 
L 162.730055 10.825137 
" clip-path="url(#p19cd5d0115)" style="fill: none; stroke: #000000; stroke-width: 3"/>
   </g>
   <g id="line2d_10">
    <path d="M 171.608379 10.825137 
L 171.608379 90.730055 
" clip-path="url(#p19cd5d0115)" style="fill: none; stroke: #000000; stroke-width: 3"/>
   </g>
   <g id="line2d_11">
    <path d="M 260.391621 10.825137 
L 180.486703 10.825137 
" clip-path="url(#p19cd5d0115)" style="fill: none; stroke: #000000; stroke-width: 3"/>
   </g>
   <g id="line2d_12">
    <path d="M 349.174863 10.825137 
L 269.269945 10.825137 
" clip-path="url(#p19cd5d0115)" style="fill: none; stroke: #000000; stroke-width: 3"/>
   </g>
   <g id="PathCollection_1">
    <defs>
     <path id="me2bea18449" d="M 0 7.5 
C 1.989023 7.5 3.896849 6.709753 5.303301 5.303301 
C 6.709753 3.896849 7.5 1.989023 7.5 0 
C 7.5 -1.989023 6.709753 -3.896849 5.303301 -5.303301 
C 3.896849 -6.709753 1.989023 -7.5 0 -7.5 
C -1.989023 -7.5 -3.896849 -6.709753 -5.303301 -5.303301 
C -6.709753 -3.896849 -7.5 -1.989023 -7.5 0 
C -7.5 1.989023 -6.709753 3.896849 -5.303301 5.303301 
C -3.896849 6.709753 -1.989023 7.5 0 7.5 
z
" style="stroke: #000000"/>
    </defs>
    <g clip-path="url(#p19cd5d0115)">
     <use xlink:href="#me2bea18449" x="82.825137" y="277.174863" style="fill: #fde725; stroke: #000000"/>
    </g>
   </g>
   <g id="PathCollection_2">
    <defs>
     <path id="m477126532c" d="M 0 7.5 
C 1.989023 7.5 3.896849 6.709753 5.303301 5.303301 
C 6.709753 3.896849 7.5 1.989023 7.5 0 
C 7.5 -1.989023 6.709753 -3.896849 5.303301 -5.303301 
C 3.896849 -6.709753 1.989023 -7.5 0 -7.5 
C -1.989023 -7.5 -3.896849 -6.709753 -5.303301 -5.303301 
C -6.709753 -3.896849 -7.5 -1.989023 -7.5 0 
C -7.5 1.989023 -6.709753 3.896849 -5.303301 5.303301 
C -3.896849 6.709753 -1.989023 7.5 0 7.5 
z
" style="stroke: #000000"/>
    </defs>
    <g clip-path="url(#p19cd5d0115)">
     <use xlink:href="#m477126532c" x="171.608379" y="277.174863" style="fill: #440154; stroke: #000000"/>
    </g>
   </g>
   <g id="PathCollection_3">
    <g clip-path="url(#p19cd5d0115)">
     <use xlink:href="#m477126532c" x="260.391621" y="277.174863" style="fill: #440154; stroke: #000000"/>
    </g>
   </g>
   <g id="PathCollection_4">
    <g clip-path="url(#p19cd5d0115)">
     <use xlink:href="#m477126532c" x="349.174863" y="277.174863" style="fill: #440154; stroke: #000000"/>
    </g>
   </g>
   <g id="PathCollection_5">
    <g clip-path="url(#p19cd5d0115)">
     <use xlink:href="#m477126532c" x="82.825137" y="188.391621" style="fill: #440154; stroke: #000000"/>
    </g>
   </g>
   <g id="PathCollection_6">
    <g clip-path="url(#p19cd5d0115)">
     <use xlink:href="#m477126532c" x="171.608379" y="188.391621" style="fill: #440154; stroke: #000000"/>
    </g>
   </g>
   <g id="PathCollection_7">
    <g clip-path="url(#p19cd5d0115)">
     <use xlink:href="#me2bea18449" x="260.391621" y="188.391621" style="fill: #fde725; stroke: #000000"/>
    </g>
   </g>
   <g id="PathCollection_8">
    <g clip-path="url(#p19cd5d0115)">
     <use xlink:href="#m477126532c" x="349.174863" y="188.391621" style="fill: #440154; stroke: #000000"/>
    </g>
   </g>
   <g id="PathCollection_9">
    <g clip-path="url(#p19cd5d0115)">
     <use xlink:href="#m477126532c" x="82.825137" y="99.608379" style="fill: #440154; stroke: #000000"/>
    </g>
   </g>
   <g id="PathCollection_10">
    <g clip-path="url(#p19cd5d0115)">
     <use xlink:href="#me2bea18449" x="171.608379" y="99.608379" style="fill: #fde725; stroke: #000000"/>
    </g>
   </g>
   <g id="PathCollection_11">
    <g clip-path="url(#p19cd5d0115)">
     <use xlink:href="#m477126532c" x="260.391621" y="99.608379" style="fill: #440154; stroke: #000000"/>
    </g>
   </g>
   <g id="PathCollection_12">
    <g clip-path="url(#p19cd5d0115)">
     <use xlink:href="#me2bea18449" x="349.174863" y="99.608379" style="fill: #fde725; stroke: #000000"/>
    </g>
   </g>
   <g id="PathCollection_13">
    <g clip-path="url(#p19cd5d0115)">
     <use xlink:href="#m477126532c" x="82.825137" y="10.825137" style="fill: #440154; stroke: #000000"/>
    </g>
   </g>
   <g id="PathCollection_14">
    <g clip-path="url(#p19cd5d0115)">
     <use xlink:href="#m477126532c" x="171.608379" y="10.825137" style="fill: #440154; stroke: #000000"/>
    </g>
   </g>
   <g id="PathCollection_15">
    <g clip-path="url(#p19cd5d0115)">
     <use xlink:href="#m477126532c" x="260.391621" y="10.825137" style="fill: #440154; stroke: #000000"/>
    </g>
   </g>
   <g id="PathCollection_16">
    <g clip-path="url(#p19cd5d0115)">
     <use xlink:href="#m477126532c" x="349.174863" y="10.825137" style="fill: #440154; stroke: #000000"/>
    </g>
   </g>
   <g id="patch_3">
    <path d="M 103.703462 283.174863 
Q 97.703462 280.174863 91.703462 277.174863 
Q 97.703462 274.174863 103.703462 271.174863 
z
" style="stroke: #000000; stroke-width: 3; stroke-linecap: round"/>
   </g>
   <g id="patch_4">
    <path d="M 192.486703 283.174863 
Q 186.486703 280.174863 180.486703 277.174863 
Q 186.486703 274.174863 192.486703 271.174863 
z
" style="stroke: #000000; stroke-width: 3; stroke-linecap: round"/>
   </g>
   <g id="patch_5">
    <path d="M 281.269945 283.174863 
Q 275.269945 280.174863 269.269945 277.174863 
Q 275.269945 274.174863 281.269945 271.174863 
z
" style="stroke: #000000; stroke-width: 3; stroke-linecap: round"/>
   </g>
   <g id="patch_6">
    <path d="M 150.730055 182.391621 
Q 156.730055 185.391621 162.730055 188.391621 
Q 156.730055 191.391621 150.730055 194.391621 
z
" style="stroke: #000000; stroke-width: 3; stroke-linecap: round"/>
   </g>
   <g id="patch_7">
    <path d="M 165.608379 120.486703 
Q 168.608379 114.486703 171.608379 108.486703 
Q 174.608379 114.486703 177.608379 120.486703 
z
" style="stroke: #000000; stroke-width: 3; stroke-linecap: round"/>
   </g>
   <g id="patch_8">
    <path d="M 343.174863 120.486703 
Q 346.174863 114.486703 349.174863 108.486703 
Q 352.174863 114.486703 355.174863 120.486703 
z
" style="stroke: #000000; stroke-width: 3; stroke-linecap: round"/>
   </g>
   <g id="patch_9">
    <path d="M 88.825137 167.513297 
Q 85.825137 173.513297 82.825137 179.513297 
Q 79.825137 173.513297 76.825137 167.513297 
z
" style="stroke: #000000; stroke-width: 3; stroke-linecap: round"/>
   </g>
   <g id="patch_10">
    <path d="M 266.391621 167.513297 
Q 263.391621 173.513297 260.391621 179.513297 
Q 257.391621 173.513297 254.391621 167.513297 
z
" style="stroke: #000000; stroke-width: 3; stroke-linecap: round"/>
   </g>
   <g id="patch_11">
    <path d="M 150.730055 4.825137 
Q 156.730055 7.825137 162.730055 10.825137 
Q 156.730055 13.825137 150.730055 16.825137 
z
" style="stroke: #000000; stroke-width: 3; stroke-linecap: round"/>
   </g>
   <g id="patch_12">
    <path d="M 177.608379 78.730055 
Q 174.608379 84.730055 171.608379 90.730055 
Q 168.608379 84.730055 165.608379 78.730055 
z
" style="stroke: #000000; stroke-width: 3; stroke-linecap: round"/>
   </g>
   <g id="patch_13">
    <path d="M 192.486703 16.825137 
Q 186.486703 13.825137 180.486703 10.825137 
Q 186.486703 7.825137 192.486703 4.825137 
z
" style="stroke: #000000; stroke-width: 3; stroke-linecap: round"/>
   </g>
   <g id="patch_14">
    <path d="M 281.269945 16.825137 
Q 275.269945 13.825137 269.269945 10.825137 
Q 275.269945 7.825137 281.269945 4.825137 
z
" style="stroke: #000000; stroke-width: 3; stroke-linecap: round"/>
   </g>
  </g>
 </g>
 <defs>
  <clipPath id="p19cd5d0115">
   <rect x="74.834646" y="2.834646" width="282.330709" height="282.330709"/>
  </clipPath>
 </defs>
</svg>
