<?xml version="1.0" encoding="utf-8" standalone="no"?>
<!DOCTYPE svg PUBLIC "-//W3C//DTD SVG 1.1//EN"
  "http://www.w3.org/Graphics/SVG/1.1/DTD/svg11.dtd">
<svg xmlns:xlink="http://www.w3.org/1999/xlink" width="432pt" height="288pt" viewBox="0 0 432 288" xmlns="http://www.w3.org/2000/svg" version="1.1">
 <metadata>
  <rdf:RDF xmlns:dc="http://purl.org/dc/elements/1.1/" xmlns:cc="http://creativecommons.org/ns#" xmlns:rdf="http://www.w3.org/1999/02/22-rdf-syntax-ns#">
   <cc:Work>
    <dc:type rdf:resource="http://purl.org/dc/dcmitype/StillImage"/>
    <dc:date>2023-07-14T22:34:11.141703</dc:date>
    <dc:format>image/svg+xml</dc:format>
    <dc:creator>
     <cc:Agent>
      <dc:title>Matplotlib v3.7.1, https://matplotlib.org/</dc:title>
     </cc:Agent>
    </dc:creator>
   </cc:Work>
  </rdf:RDF>
 </metadata>
 <defs>
  <style type="text/css">*{stroke-linejoin: round; stroke-linecap: butt}</style>
 </defs>
 <g id="figure_1">
  <g id="patch_1">
   <path d="M 0 288 
L 432 288 
L 432 0 
L 0 0 
z
" style="fill: #ffffff"/>
  </g>
  <g id="axes_1">
   <g id="patch_2">
    <path d="M 74.834646 285.165354 
L 357.165354 285.165354 
L 357.165354 2.834646 
L 74.834646 2.834646 
z
" style="fill: #ffffff"/>
   </g>
   <g id="line2d_1">
    <path d="M 171.608379 277.174863 
L 171.608379 197.269945 
" clip-path="url(#pc82aff7c21)" style="fill: none; stroke: #000000; stroke-width: 5"/>
   </g>
   <g id="matplotlib.axis_1">
    <g id="xtick_1"/>
    <g id="xtick_2"/>
    <g id="xtick_3"/>
    <g id="xtick_4"/>
    <g id="xtick_5"/>
    <g id="xtick_6"/>
    <g id="xtick_7"/>
   </g>
   <g id="matplotlib.axis_2">
    <g id="ytick_1"/>
    <g id="ytick_2"/>
    <g id="ytick_3"/>
    <g id="ytick_4"/>
    <g id="ytick_5"/>
    <g id="ytick_6"/>
    <g id="ytick_7"/>
   </g>
   <g id="line2d_2">
    <path d="M 349.174863 277.174863 
L 349.174863 197.269945 
" clip-path="url(#pc82aff7c21)" style="fill: none; stroke: #000000; stroke-width: 5"/>
   </g>
   <g id="line2d_3">
    <path d="M 82.825137 188.391621 
L 162.730055 188.391621 
" clip-path="url(#pc82aff7c21)" style="fill: none; stroke: #000000; stroke-width: 5"/>
   </g>
   <g id="line2d_4">
    <path d="M 171.608379 188.391621 
L 251.513297 188.391621 
" clip-path="url(#pc82aff7c21)" style="fill: none; stroke: #000000; stroke-width: 5"/>
   </g>
   <g id="line2d_5">
    <path d="M 260.391621 188.391621 
L 260.391621 268.296538 
" clip-path="url(#pc82aff7c21)" style="fill: none; stroke: #000000; stroke-width: 5"/>
   </g>
   <g id="line2d_6">
    <path d="M 349.174863 188.391621 
L 269.269945 188.391621 
" clip-path="url(#pc82aff7c21)" style="fill: none; stroke: #000000; stroke-width: 5"/>
   </g>
   <g id="line2d_7">
    <path d="M 82.825137 99.608379 
L 82.825137 179.513297 
" clip-path="url(#pc82aff7c21)" style="fill: none; stroke: #000000; stroke-width: 5"/>
   </g>
   <g id="line2d_8">
    <path d="M 171.608379 99.608379 
L 251.513297 99.608379 
" clip-path="url(#pc82aff7c21)" style="fill: none; stroke: #000000; stroke-width: 5"/>
   </g>
   <g id="line2d_9">
    <path d="M 349.174863 99.608379 
L 349.174863 19.703462 
" clip-path="url(#pc82aff7c21)" style="fill: none; stroke: #000000; stroke-width: 5"/>
   </g>
   <g id="line2d_10">
    <path d="M 82.825137 10.825137 
L 162.730055 10.825137 
" clip-path="url(#pc82aff7c21)" style="fill: none; stroke: #000000; stroke-width: 5"/>
   </g>
   <g id="line2d_11">
    <path d="M 171.608379 10.825137 
L 251.513297 10.825137 
" clip-path="url(#pc82aff7c21)" style="fill: none; stroke: #000000; stroke-width: 5"/>
   </g>
   <g id="line2d_12">
    <path d="M 260.391621 10.825137 
L 260.391621 90.730055 
" clip-path="url(#pc82aff7c21)" style="fill: none; stroke: #000000; stroke-width: 5"/>
   </g>
   <g id="PathCollection_1">
    <defs>
     <path id="me8da711cc9" d="M 0 7.5 
C 1.989023 7.5 3.896849 6.709753 5.303301 5.303301 
C 6.709753 3.896849 7.5 1.989023 7.5 0 
C 7.5 -1.989023 6.709753 -3.896849 5.303301 -5.303301 
C 3.896849 -6.709753 1.989023 -7.5 0 -7.5 
C -1.989023 -7.5 -3.896849 -6.709753 -5.303301 -5.303301 
C -6.709753 -3.896849 -7.5 -1.989023 -7.5 0 
C -7.5 1.989023 -6.709753 3.896849 -5.303301 5.303301 
C -3.896849 6.709753 -1.989023 7.5 0 7.5 
z
" style="stroke: #000000"/>
    </defs>
    <g clip-path="url(#pc82aff7c21)">
     <use xlink:href="#me8da711cc9" x="82.825137" y="277.174863" style="fill: #fde725; stroke: #000000"/>
    </g>
   </g>
   <g id="PathCollection_2">
    <defs>
     <path id="mbda4445e99" d="M 0 7.5 
C 1.989023 7.5 3.896849 6.709753 5.303301 5.303301 
C 6.709753 3.896849 7.5 1.989023 7.5 0 
C 7.5 -1.989023 6.709753 -3.896849 5.303301 -5.303301 
C 3.896849 -6.709753 1.989023 -7.5 0 -7.5 
C -1.989023 -7.5 -3.896849 -6.709753 -5.303301 -5.303301 
C -6.709753 -3.896849 -7.5 -1.989023 -7.5 0 
C -7.5 1.989023 -6.709753 3.896849 -5.303301 5.303301 
C -3.896849 6.709753 -1.989023 7.5 0 7.5 
z
" style="stroke: #000000"/>
    </defs>
    <g clip-path="url(#pc82aff7c21)">
     <use xlink:href="#mbda4445e99" x="171.608379" y="277.174863" style="fill: #440154; stroke: #000000"/>
    </g>
   </g>
   <g id="PathCollection_3">
    <g clip-path="url(#pc82aff7c21)">
     <use xlink:href="#me8da711cc9" x="260.391621" y="277.174863" style="fill: #fde725; stroke: #000000"/>
    </g>
   </g>
   <g id="PathCollection_4">
    <g clip-path="url(#pc82aff7c21)">
     <use xlink:href="#mbda4445e99" x="349.174863" y="277.174863" style="fill: #440154; stroke: #000000"/>
    </g>
   </g>
   <g id="PathCollection_5">
    <g clip-path="url(#pc82aff7c21)">
     <use xlink:href="#mbda4445e99" x="82.825137" y="188.391621" style="fill: #440154; stroke: #000000"/>
    </g>
   </g>
   <g id="PathCollection_6">
    <g clip-path="url(#pc82aff7c21)">
     <use xlink:href="#mbda4445e99" x="171.608379" y="188.391621" style="fill: #440154; stroke: #000000"/>
    </g>
   </g>
   <g id="PathCollection_7">
    <g clip-path="url(#pc82aff7c21)">
     <use xlink:href="#mbda4445e99" x="260.391621" y="188.391621" style="fill: #440154; stroke: #000000"/>
    </g>
   </g>
   <g id="PathCollection_8">
    <g clip-path="url(#pc82aff7c21)">
     <use xlink:href="#mbda4445e99" x="349.174863" y="188.391621" style="fill: #440154; stroke: #000000"/>
    </g>
   </g>
   <g id="PathCollection_9">
    <g clip-path="url(#pc82aff7c21)">
     <use xlink:href="#mbda4445e99" x="82.825137" y="99.608379" style="fill: #440154; stroke: #000000"/>
    </g>
   </g>
   <g id="PathCollection_10">
    <g clip-path="url(#pc82aff7c21)">
     <use xlink:href="#mbda4445e99" x="171.608379" y="99.608379" style="fill: #440154; stroke: #000000"/>
    </g>
   </g>
   <g id="PathCollection_11">
    <g clip-path="url(#pc82aff7c21)">
     <use xlink:href="#me8da711cc9" x="260.391621" y="99.608379" style="fill: #fde725; stroke: #000000"/>
    </g>
   </g>
   <g id="PathCollection_12">
    <g clip-path="url(#pc82aff7c21)">
     <use xlink:href="#mbda4445e99" x="349.174863" y="99.608379" style="fill: #440154; stroke: #000000"/>
    </g>
   </g>
   <g id="PathCollection_13">
    <g clip-path="url(#pc82aff7c21)">
     <use xlink:href="#mbda4445e99" x="82.825137" y="10.825137" style="fill: #440154; stroke: #000000"/>
    </g>
   </g>
   <g id="PathCollection_14">
    <g clip-path="url(#pc82aff7c21)">
     <use xlink:href="#mbda4445e99" x="171.608379" y="10.825137" style="fill: #440154; stroke: #000000"/>
    </g>
   </g>
   <g id="PathCollection_15">
    <g clip-path="url(#pc82aff7c21)">
     <use xlink:href="#mbda4445e99" x="260.391621" y="10.825137" style="fill: #440154; stroke: #000000"/>
    </g>
   </g>
   <g id="PathCollection_16">
    <g clip-path="url(#pc82aff7c21)">
     <use xlink:href="#me8da711cc9" x="349.174863" y="10.825137" style="fill: #fde725; stroke: #000000"/>
    </g>
   </g>
   <g id="patch_3">
    <path d="M 170.108379 200.269945 
Q 170.858379 198.769945 171.608379 197.269945 
Q 172.358379 198.769945 173.108379 200.269945 
z
" style="stroke: #000000; stroke-width: 5; stroke-linecap: round"/>
   </g>
   <g id="patch_4">
    <path d="M 347.674863 200.269945 
Q 348.424863 198.769945 349.174863 197.269945 
Q 349.924863 198.769945 350.674863 200.269945 
z
" style="stroke: #000000; stroke-width: 5; stroke-linecap: round"/>
   </g>
   <g id="patch_5">
    <path d="M 159.730055 186.891621 
Q 161.230055 187.641621 162.730055 188.391621 
Q 161.230055 189.141621 159.730055 189.891621 
z
" style="stroke: #000000; stroke-width: 5; stroke-linecap: round"/>
   </g>
   <g id="patch_6">
    <path d="M 248.513297 186.891621 
Q 250.013297 187.641621 251.513297 188.391621 
Q 250.013297 189.141621 248.513297 189.891621 
z
" style="stroke: #000000; stroke-width: 5; stroke-linecap: round"/>
   </g>
   <g id="patch_7">
    <path d="M 261.891621 265.296538 
Q 261.141621 266.796538 260.391621 268.296538 
Q 259.641621 266.796538 258.891621 265.296538 
z
" style="stroke: #000000; stroke-width: 5; stroke-linecap: round"/>
   </g>
   <g id="patch_8">
    <path d="M 272.269945 189.891621 
Q 270.769945 189.141621 269.269945 188.391621 
Q 270.769945 187.641621 272.269945 186.891621 
z
" style="stroke: #000000; stroke-width: 5; stroke-linecap: round"/>
   </g>
   <g id="patch_9">
    <path d="M 84.325137 176.513297 
Q 83.575137 178.013297 82.825137 179.513297 
Q 82.075137 178.013297 81.325137 176.513297 
z
" style="stroke: #000000; stroke-width: 5; stroke-linecap: round"/>
   </g>
   <g id="patch_10">
    <path d="M 248.513297 98.108379 
Q 250.013297 98.858379 251.513297 99.608379 
Q 250.013297 100.358379 248.513297 101.108379 
z
" style="stroke: #000000; stroke-width: 5; stroke-linecap: round"/>
   </g>
   <g id="patch_11">
    <path d="M 347.674863 22.703462 
Q 348.424863 21.203462 349.174863 19.703462 
Q 349.924863 21.203462 350.674863 22.703462 
z
" style="stroke: #000000; stroke-width: 5; stroke-linecap: round"/>
   </g>
   <g id="patch_12">
    <path d="M 159.730055 9.325137 
Q 161.230055 10.075137 162.730055 10.825137 
Q 161.230055 11.575137 159.730055 12.325137 
z
" style="stroke: #000000; stroke-width: 5; stroke-linecap: round"/>
   </g>
   <g id="patch_13">
    <path d="M 248.513297 9.325137 
Q 250.013297 10.075137 251.513297 10.825137 
Q 250.013297 11.575137 248.513297 12.325137 
z
" style="stroke: #000000; stroke-width: 5; stroke-linecap: round"/>
   </g>
   <g id="patch_14">
    <path d="M 261.891621 87.730055 
Q 261.141621 89.230055 260.391621 90.730055 
Q 259.641621 89.230055 258.891621 87.730055 
z
" style="stroke: #000000; stroke-width: 5; stroke-linecap: round"/>
   </g>
  </g>
 </g>
 <defs>
  <clipPath id="pc82aff7c21">
   <rect x="74.834646" y="2.834646" width="282.330709" height="282.330709"/>
  </clipPath>
 </defs>
</svg>
